<svg xmlns="http://www.w3.org/2000/svg" xmlns:xlink="http://www.w3.org/1999/xlink" width="13" height="15"><defs><path id="a" d="M394.97 236.28c.08-1.68.82-2.48 1.44-2.85a3.07 3.07 0 0 1 1.57-.43h.05c.59.01 1.12.16 1.57.44.6.37 1.34 1.17 1.42 2.84.02.22.2 2.4-.81 3.78v.01c.02.01 1.11.82 2.43 1.18l.03.01c1.27.47 1.3 1.92 1.32 2.54v.08c0 .17.01 1-.13 1.42a.41.41 0 0 1-.16.2c-.08.06-2.18 1.5-5.7 1.5a10.5 10.5 0 0 1-5.7-1.5.4.4 0 0 1-.15-.2 5.14 5.14 0 0 1-.15-1.42v-.08c.02-.62.06-2.07 1.33-2.54h.03a8.1 8.1 0 0 0 2.43-1.2c-1.01-1.37-.84-3.56-.82-3.78zm3.07 4.88h-.09a2.68 2.68 0 0 1-1.6-.53.41.41 0 0 1-.12.13c-.05.03-1.2.9-2.66 1.3-.68.27-.76 1.05-.78 1.76v.08c0 .28.01.72.06.97.47.29 2.34 1.29 5.15 1.29 2.82 0 4.68-1 5.15-1.29.05-.25.06-.68.06-.97v-.07c-.02-.72-.1-1.5-.78-1.76a8.85 8.85 0 0 1-2.67-1.3.42.42 0 0 1-.1-.14c-.45.34-1 .51-1.62.53zm-1.56-1.52c.36.44.86.66 1.5.67h.03c.64 0 1.13-.23 1.5-.67.93-1.12.73-3.26.72-3.28v-.02c-.09-2.13-1.43-2.47-2.22-2.5h-.03c-.64 0-2.13.25-2.22 2.5v.02c0 .02-.2 2.16.72 3.28z"/></defs><g transform="translate(-392 -232)"><use xlink:href="#a"/><use fill="#fff" fill-opacity="0" stroke="#000" stroke-linecap="round" stroke-linejoin="round" stroke-miterlimit="50" xlink:href="#a"/></g></svg>