<svg xmlns="http://www.w3.org/2000/svg" xmlns:xlink="http://www.w3.org/1999/xlink" width="15" height="14" viewBox="0 0 15 14"><defs><path id="1iswa" d="M403.96 271.61l-1.26 5.02a1.4 1.4 0 0 1-1.35 1.05h-7.51a.56.56 0 0 0-.57.58c.01.3.27.54.58.54h6.3c.9 0 1.64.71 1.64 1.6a1.61 1.61 0 1 1-3.13-.52h-1.89a1.6 1.6 0 1 1-3.04 0 1.64 1.64 0 0 1-1.54-1.64c0-.77.53-1.41 1.25-1.59l-1.26-4.44-.92-3.21h-1.79a.47.47 0 0 1-.47-.48v-.05c0-.26.21-.47.47-.47h2.09c.27 0 .52.19.6.46l.47 1.63c.22-.13.47-.2.73-.2h9.22a1.37 1.37 0 0 1 1.37 1.72zm-4.31 8.8a.53.53 0 0 0 1.06 0 .53.53 0 0 0-1.06 0zm-4.93 0a.53.53 0 0 0 1.06 0 .53.53 0 0 0-1.06 0zm-1.42-8.2h1.35l-.28-1.25h-1a.3.3 0 0 0-.26.13.3.3 0 0 0-.05.27zm.63 2.22h1.2l-.25-1.15h-1.27zm.85 2.17h.84l-.25-1.1h-1.13l.24.87c.04.14.16.23.3.23zm2.7 0v-1.1h-1l.24 1.1zm0-3.32h-1.5l.26 1.15h1.24zm0-2.32h-2l.27 1.25h1.73zm2.17 4.55h-1.08v1.09h.85zm.47-2.23h-1.55v1.15h1.3zm.23-1.07l.26-1.25h-2.04v1.25zm1.52 3.3h-1.11l-.24 1.1h.83c.15 0 .27-.1.3-.25zm.56-2.23h-1.2l-.25 1.15h1.16zm.42-2.2a.3.3 0 0 0-.25-.12h-.88l-.27 1.24h1.24l.22-.85a.3.3 0 0 0-.06-.27z"/></defs><g><g transform="translate(-389 -268)"><use xlink:href="#1iswa"/></g></g></svg>