<svg xmlns="http://www.w3.org/2000/svg" xmlns:xlink="http://www.w3.org/1999/xlink" width="31" height="35" viewBox="0 0 31 35"><defs><path id="rbspa" d="M1010.88 2144.91l-10.34 10.21a.74.74 0 0 1-1.04 0l-5.9-5.83a.72.72 0 0 1 0-1.03.75.75 0 0 1 1.04 0l5.38 5.31 9.81-9.69a.74.74 0 0 1 1.05 0c.29.29.29.75 0 1.03zm6.12-7.8v16.04c0 6.44-9.95 12.18-15.28 13.82a.74.74 0 0 1-.44 0c-5.33-1.64-15.28-7.38-15.28-13.82v-16.05c0-.32.21-.6.53-.7l14.76-4.37a.75.75 0 0 1 .42 0l14.76 4.38c.32.09.53.37.53.7zm-1.48.54l-14.02-4.16-14.02 4.16v15.5c0 5.12 8.2 10.5 14.02 12.36 5.81-1.86 14.02-7.24 14.02-12.36z"/></defs><g><g transform="translate(-986 -2132)"><use fill="#f22100" xlink:href="#rbspa"/></g></g></svg>