<svg xmlns="http://www.w3.org/2000/svg" xmlns:xlink="http://www.w3.org/1999/xlink" width="37" height="47"><defs><path id="a" d="M544.87 528.07l-6.35 6.44a.99.99 0 0 1-.58.24.79.79 0 0 1-.57-.24.82.82 0 0 1 0-1.1l5.83-5.91-5.97-6a.82.82 0 0 1 0-1.11.8.8 0 0 1 1.1 0l6.54 6.58c.29.29.29.82 0 1.1zm15.29-15.28l-2.3 2.3a18.4 18.4 0 0 1-.53 25.42c-.04.01-.04.06-.04.06 0 .05-.05.05-.05.05a18.19 18.19 0 0 1-25.8 0c0-.05-.04-.05-.04-.05-.05 0-.05-.05-.05-.05a18.4 18.4 0 0 1 0-25.95c.05 0 .05-.05.05-.05 0-.05.05-.05.05-.05a17.82 17.82 0 0 1 9.17-5v-3.45h-.53a3.52 3.52 0 0 1-3.48-3.51c0-1.92 1.57-3.51 3.48-3.51h8.7a3.52 3.52 0 0 1 3.48 3.5c0 1.93-1.57 3.52-3.48 3.52h-.72v3.5c3.3.68 6.26 2.26 8.65 4.47l2.29-2.3-1.67-1.68a.82.82 0 0 1 0-1.11.8.8 0 0 1 1.1 0l4.34 4.37c.3.3.3.82 0 1.1a.99.99 0 0 1-.57.25.79.79 0 0 1-.57-.24zm-11.47-8.4a1.92 1.92 0 0 0 0-3.85h-8.65c-1.05 0-1.9.86-1.9 1.92 0 1.1.85 1.97 1.95 1.92zm-6.54 1.63v3.22a16.18 16.18 0 0 1 4.3 0v-3.22zm14.62 10.18l-3.2 3.22a.99.99 0 0 1-.58.24.79.79 0 0 1-.57-.24.82.82 0 0 1 0-1.1l3.2-3.22a16.66 16.66 0 0 0-10.46-4.37v4.56c0 .43-.34.77-.77.77a.76.76 0 0 1-.76-.77v-4.56c-4.01.19-7.65 1.82-10.46 4.37l3.2 3.22c.28.29.28.82 0 1.1a1 1 0 0 1-.58.24.79.79 0 0 1-.57-.24l-3.2-3.22a16.86 16.86 0 0 0-4.35 10.53h4.54c.43 0 .76.34.76.77s-.33.77-.76.77h-4.54c.2 4.03 1.82 7.69 4.35 10.52l3.2-3.22a.8.8 0 0 1 1.1 0c.29.29.29.82 0 1.1l-3.2 3.23a16.65 16.65 0 0 0 10.46 4.37v-4.57c0-.43.33-.76.76-.76s.77.33.77.76v4.57c4.01-.2 7.64-1.83 10.46-4.37l-3.2-3.22a.82.82 0 0 1 0-1.1.8.8 0 0 1 1.1 0l3.2 3.21a16.86 16.86 0 0 0 4.35-10.52h-4.54a.76.76 0 0 1-.77-.77c0-.43.34-.77.77-.77h4.54a17.43 17.43 0 0 0-4.25-10.53z"/></defs><use fill="#f22100" xlink:href="#a" transform="translate(-526 -499)"/></svg>