<svg xmlns="http://www.w3.org/2000/svg" xmlns:xlink="http://www.w3.org/1999/xlink" width="23" height="22"><defs><path id="a" d="M1501.93 34.67l-1.92 7.88a2.15 2.15 0 0 1-2.07 1.66h-11.53a.87.87 0 0 0-.86.91.9.9 0 0 0 .89.85h9.66a2.52 2.52 0 1 1-.14 5.03 2.5 2.5 0 0 1-2.15-3.34h-2.9a2.53 2.53 0 0 1-2.5 3.34 2.5 2.5 0 0 1-2.16-3.34 2.56 2.56 0 0 1-2.36-2.57c0-1.2.82-2.22 1.92-2.5l-1.94-6.97-1.4-5.06h-2.75a.73.73 0 0 1-.73-.74v-.08c0-.4.33-.74.73-.74h3.2c.43 0 .8.3.92.72l.72 2.57c.34-.2.72-.33 1.13-.33h14.14a2.17 2.17 0 0 1 2.1 2.71zm-6.6 13.82c0 .45.36.83.81.83.45 0 .81-.38.81-.83a.82.82 0 0 0-.8-.83.82.82 0 0 0-.82.83zm-7.56 0c0 .45.37.83.81.83.45 0 .82-.38.82-.83a.82.82 0 0 0-.82-.83.82.82 0 0 0-.81.83zm-2.17-12.88h2.06l-.42-1.95h-1.55c-.2 0-.33.12-.38.19a.47.47 0 0 0-.08.43zm.96 3.5h1.85l-.39-1.81h-1.96zm1.3 3.4h1.28l-.37-1.71h-1.74l.37 1.35c.06.22.25.36.47.36zm4.14 0V40.8h-1.53l.37 1.71zm0-5.21h-2.28l.39 1.8h1.9zm0-3.65h-3.07l.42 1.96h2.66zm3.33 7.15h-1.66v1.71h1.3zm.73-3.5h-2.4v1.8h2.02zm.34-1.7l.4-1.95h-3.13v1.96zm2.34 5.2h-1.71l-.36 1.72h1.27c.23 0 .42-.16.47-.38zm.85-3.5h-1.84l-.38 1.8h1.78zm.65-3.46a.45.45 0 0 0-.38-.2h-1.36l-.4 1.96h1.9l.33-1.34a.48.48 0 0 0-.1-.42z"/></defs><use fill="#fff" xlink:href="#a" transform="translate(-1479 -29)"/></svg>