<svg xmlns="http://www.w3.org/2000/svg" xmlns:xlink="http://www.w3.org/1999/xlink" width="39" height="43" viewBox="0 0 39 43"><defs><path id="rqx7a" d="M560.93 229.72c-.13-.4-.52-.52-.91-.36-13.93 6.36-26.21 3.64-26.34 3.64h-.09c-.08 0-10.03-1.08-10.16-7.36-.13-6.64 3.76-19.84 6.62-26.36 2.46-5.6 8.82-5.88 11.89-6h.26c2.38-.08 5.54 4.2 5.62 5.32.04.24-.17.56-.52.92a6 6 0 0 1-3.46 1.64c-.47 0-1.2-.44-1.99-.92-.56-.36-1.2-.72-1.9-1.04l-3.59-1.88c-.34-.16-.78-.08-.95.24-.17.32-.09.72.26.88l.6.32c-.56.2-1.08.56-1.47 1.16-1.6 2.24-1.6 7.2-.86 9.8.82 2.96 2.25 10.12 2.25 10.2.04.24.26.44.47.52.26.08.52 0 .74-.16 6.1-6 12.8-.84 13.06-.6.3.24.73.2 1-.04 3.32-3.48 8.95-4.64 8.99-4.64.39-.08.6-.44.52-.8-.09-.36-.48-.56-.87-.48-.21.04-5.62 1.16-9.3 4.6-1.81-1.2-7.78-4.44-13.49.2-.43-2.2-1.38-6.8-2.03-9.08-.65-2.24-.7-6.84.7-8.72.3-.4.64-.64.99-.68 1.51-.2 2.9.64 4.1 1.36 1 .6 1.86 1.12 2.77 1.12 1.34 0 3.38-.92 4.5-2.08.65-.64.95-1.32.87-1.92-.18-1.8-3.9-6.64-7.14-6.52h-.26c-3.11.12-10.34.44-13.1 6.84-2.51 5.72-6.88 19.56-6.7 26.88.12 7.2 10.5 8.56 11.37 8.64.43.08 3.15.64 7.26.64 5.06 0 12.24-.84 19.98-4.4a.63.63 0 0 0 .3-.88z"/></defs><g><g transform="translate(-522 -192)"><use fill="#f22100" xlink:href="#rqx7a"/></g></g></svg>