<svg xmlns="http://www.w3.org/2000/svg" xmlns:xlink="http://www.w3.org/1999/xlink" width="22" height="23"><defs><path id="a" d="M1335.62 51.66a1.19 1.19 0 0 1-1.7-.03l-5.46-5.74a9.04 9.04 0 0 1-5.26 1.68 9.25 9.25 0 0 1-9.2-9.28 9.25 9.25 0 0 1 9.2-9.29 9.31 9.31 0 1 1 7.04 15.26l5.42 5.69c.46.48.44 1.25-.04 1.71zM1316.4 38.3a6.84 6.84 0 0 0 6.8 6.86c3.74 0 6.8-3.08 6.8-6.86a6.84 6.84 0 0 0-6.8-6.87 6.84 6.84 0 0 0-6.8 6.87z"/></defs><use fill="#b1b3b6" xlink:href="#a" transform="translate(-1314 -29)"/></svg>