<svg xmlns="http://www.w3.org/2000/svg" xmlns:xlink="http://www.w3.org/1999/xlink" width="41" height="41" viewBox="0 0 41 41"><defs><path id="xvl8a" d="M564 350.6v31.8a4.6 4.6 0 0 1-4.6 4.6h-31.8a4.6 4.6 0 0 1-4.6-4.6v-31.8a4.6 4.6 0 0 1 4.6-4.6h31.8a4.6 4.6 0 0 1 4.6 4.6zm-21.25 22.19h-18.2v9.61a3.11 3.11 0 0 0 3.05 3.1h15.15zm19.7 0h-18.2v12.66h15.15a3.04 3.04 0 0 0 3.05-3.05zm.05-1.5v-20.65a3.1 3.1 0 0 0-3.1-3.1h-31.8a3.05 3.05 0 0 0-3.05 3.1v20.64zm-9.52-11.31c0 5.2-4.27 9.48-9.48 9.48a9.55 9.55 0 0 1-9.48-9.53c0-5.2 4.27-9.47 9.48-9.47 5.2 0 9.48 4.31 9.48 9.52zm-1.55-.05a7.95 7.95 0 0 0-7.93-7.93 7.96 7.96 0 0 0 0 15.9 7.96 7.96 0 0 0 7.93-7.97zm-6.62.05c0 .7-.6 1.31-1.31 1.31-.7 0-1.31-.6-1.31-1.31v-.19l-3.38-3.28c-.28-.28-.28-.75 0-1.08a.8.8 0 0 1 1.08 0l3.38 3.24h.23c.7 0 1.31.6 1.31 1.3zm14.83 15.43c0 .43-.33.75-.75.75h-10.65a.74.74 0 0 1-.75-.75c0-.42.33-.75.75-.75h10.65c.42 0 .75.33.75.75zm0 2.44c0 .42-.33.75-.75.75h-10.65a.74.74 0 0 1-.75-.75c0-.42.33-.75.75-.75h10.65c.42 0 .75.38.75.75zm0 2.49c0 .42-.33.75-.75.75h-10.65a.74.74 0 0 1-.75-.75c0-.42.33-.75.75-.75h10.65c.42 0 .75.33.75.75zm0 2.48c0 .43-.33.76-.75.76h-10.65a.74.74 0 0 1-.75-.76c0-.42.33-.75.75-.75h10.65c.42 0 .75.33.75.75zm-20.13-7.4c0 .42-.33.74-.75.74h-10.65a.74.74 0 0 1-.75-.75c0-.42.33-.75.75-.75h10.65c.42 0 .75.33.75.75zm0 2.43c0 .42-.33.75-.75.75h-10.65a.74.74 0 0 1-.75-.75c0-.42.33-.75.75-.75h10.65c.42 0 .8.38.75.75zm0 2.49c0 .42-.33.75-.75.75h-10.65a.74.74 0 0 1-.75-.75c0-.42.33-.75.75-.75h10.65c.42 0 .8.33.75.75zm0 2.48c0 .43-.33.76-.75.76h-10.65a.74.74 0 0 1-.75-.76c0-.42.33-.75.75-.75h10.65c.42 0 .8.33.75.75z"/></defs><g><g transform="translate(-523 -346)"><use fill="#f22100" xlink:href="#xvl8a"/></g></g></svg>