<svg xmlns="http://www.w3.org/2000/svg" xmlns:xlink="http://www.w3.org/1999/xlink" width="20" height="23" viewBox="0 0 20 23"><defs><path id="gtv0a" d="M1388.7 34.16c.12-2.64 1.3-3.9 2.28-4.49a4.9 4.9 0 0 1 2.49-.67h.08a4.9 4.9 0 0 1 2.48.7c.97.58 2.13 1.84 2.25 4.46.03.34.3 3.78-1.29 5.94l.02.01a13 13 0 0 0 3.84 1.86l.04.02c2.01.73 2.07 3 2.1 3.98V46.11c0 .26.01 1.57-.22 2.23a.65.65 0 0 1-.24.3c-.14.1-3.46 2.36-9.03 2.36-5.56 0-8.88-2.26-9.02-2.35a.62.62 0 0 1-.24-.31 8.02 8.02 0 0 1-.24-2.24v-.01-.12c.03-.97.1-3.25 2.1-3.99l.05-.01a12.86 12.86 0 0 0 3.84-1.87c-1.59-2.16-1.31-5.6-1.28-5.94zm4.86 7.66h-.14a4.26 4.26 0 0 1-2.54-.82.65.65 0 0 1-.18.2c-.08.05-1.92 1.42-4.22 2.05-1.08.4-1.2 1.63-1.23 2.76v.12c-.01.44.02 1.13.1 1.52.75.45 3.7 2.03 8.15 2.03 4.47 0 7.4-1.57 8.15-2.02.08-.4.1-1.08.1-1.53v-.12c-.04-1.12-.16-2.35-1.23-2.76-2.3-.63-4.15-2-4.23-2.05a.65.65 0 0 1-.18-.2c-.7.52-1.55.8-2.55.82zm-2.47-2.39c.58.7 1.36 1.05 2.38 1.06h.04a2.95 2.95 0 0 0 2.39-1.06c1.47-1.76 1.14-5.11 1.14-5.15v-.03c-.15-3.34-2.27-3.89-3.52-3.92h-.06c-1 0-3.36.38-3.51 3.92v.03c-.01.03-.33 3.4 1.14 5.15z"/></defs><g><g transform="translate(-1384 -28)"><use fill="#fff" xlink:href="#gtv0a"/><use fill="#fff" fill-opacity="0" stroke="#fff" stroke-linecap="round" stroke-linejoin="round" stroke-miterlimit="50" xlink:href="#gtv0a"/></g></g></svg>